<svg width="42" height="42" viewBox="0 0 42 42" fill="none" xmlns="http://www.w3.org/2000/svg">
<path fill-rule="evenodd" clip-rule="evenodd" d="M21 0C32.59 0 42 9.41 42 21C42 32.59 32.59 42 21 42C9.41 42 0 32.59 0 21C0 9.41 9.41 0 21 0ZM29.555 21.832L17.555 29.832C17.248 30.037 16.853 30.056 16.528 29.882C16.203 29.708 16 29.369 16 29V13C16 12.631 16.203 12.292 16.528 12.118C16.853 11.944 17.248 11.963 17.555 12.168L29.555 20.168C29.833 20.353 30 20.666 30 21C30 21.334 29.833 21.647 29.555 21.832Z" fill="black"/>
</svg>
